<svg width="13" height="16" viewBox="0 0 13 16" fill="none" xmlns="http://www.w3.org/2000/svg">
<path fill-rule="evenodd" clip-rule="evenodd" d="M6.92749 5.09937C6.78212 4.70027 6.21798 4.70027 6.07261 5.09937L5.41292 6.91292L3.59937 7.57261C3.20027 7.71798 3.20027 8.28212 3.59937 8.42749L5.41292 9.08717L6.07261 10.9007C6.21798 11.2998 6.78212 11.2998 6.92749 10.9007L7.58717 9.08717L9.40072 8.42749C9.79982 8.28212 9.79982 7.71798 9.40072 7.57261L7.58717 6.91292L6.92749 5.09937Z" fill="white"/>
<path d="M0.100146 14.4V1.6C0.100146 1.17565 0.268718 0.768687 0.568776 0.468629C0.868834 0.168571 1.2758 0 1.70015 0H11.3001C11.7245 0 12.1315 0.168571 12.4315 0.468629C12.7316 0.768687 12.9001 1.17565 12.9001 1.6V14.4C12.9001 14.8243 12.7316 15.2313 12.4315 15.5314C12.1315 15.8314 11.7245 16 11.3001 16H1.70015C1.2758 16 0.868834 15.8314 0.568776 15.5314C0.268718 15.2313 0.100146 14.8243 0.100146 14.4ZM11.3001 1.6H1.70015V14.4H11.3001V1.6Z" fill="white"/>
</svg>
