<svg width="21" height="21" viewBox="0 0 21 21" fill="none" xmlns="http://www.w3.org/2000/svg">
<g clip-path="url(#clip0_85_3108)">
<path d="M15.8135 7.29534C15.6953 8.93541 14.4787 10.1988 13.152 10.1988C11.8252 10.1988 10.6066 8.93581 10.4904 7.29534C10.3695 5.58913 11.5538 4.39185 13.152 4.39185C14.7501 4.39185 15.9345 5.62018 15.8135 7.29534Z" stroke="white" stroke-width="1.5" stroke-linecap="round" stroke-linejoin="round"/>
<path d="M13.1523 12.7798C10.5242 12.7798 7.99697 14.0851 7.36385 16.6273C7.27997 16.9636 7.49088 17.2963 7.83647 17.2963H18.4685C18.8141 17.2963 19.0238 16.9636 18.9411 16.6273C18.308 14.0444 15.7808 12.7798 13.1523 12.7798Z" stroke="white" stroke-width="1.5" stroke-miterlimit="10"/>
<path d="M7.66799 8.01888C7.57363 9.32868 6.59047 10.3602 5.5307 10.3602C4.47092 10.3602 3.48616 9.32908 3.3934 8.01888C3.29703 6.65625 4.25397 5.68237 5.5307 5.68237C6.80743 5.68237 7.76437 6.68126 7.66799 8.01888Z" stroke="white" stroke-width="1.5" stroke-linecap="round" stroke-linejoin="round"/>
<path d="M7.91023 12.8604C7.18235 12.5269 6.38066 12.3987 5.53098 12.3987C3.43402 12.3987 1.41367 13.4411 0.907575 15.4715C0.841037 15.7401 1.0096 16.0059 1.28543 16.0059H5.81327" stroke="white" stroke-width="1.5" stroke-miterlimit="10" stroke-linecap="round"/>
</g>
<defs>
<clipPath id="clip0_85_3108">
<rect width="20.6471" height="19.5" fill="white" transform="translate(0.176514 0.75)"/>
</clipPath>
</defs>
</svg>
