<svg width="25" height="10" viewBox="0 0 25 10" fill="none" xmlns="http://www.w3.org/2000/svg">
<path d="M10.75 3.625C10.75 3.16087 10.9344 2.71575 11.2626 2.38756C11.5908 2.05937 12.0359 1.875 12.5 1.875C12.9641 1.875 13.4092 2.05937 13.7374 2.38756C14.0656 2.71575 14.25 3.16087 14.25 3.625M23 1.875H23.875M23 1.875C23 7.125 22.125 8.875 18.625 8.875C15.125 8.875 14.25 7.125 14.25 1.875C14.25 1.875 15.125 1 18.625 1C22.125 1 23 1.875 23 1.875ZM2 1.875H1.125M2 1.875C2 7.125 2.875 8.875 6.375 8.875C9.875 8.875 10.75 7.125 10.75 1.875C10.75 1.875 9.875 1 6.375 1C2.875 1 2 1.875 2 1.875Z" stroke="white" stroke-width="1.5" stroke-linecap="round" stroke-linejoin="round"/>
</svg>
