<svg width="21" height="18" viewBox="0 0 21 18" fill="none" xmlns="http://www.w3.org/2000/svg">
<path d="M15.637 10.3164C14.9323 7.92127 14.2239 3.92336 16.2467 1.33343C16.4826 1.03149 16.4776 0.615119 16.2347 0.31842C15.9917 0.0216557 15.5716 -0.0812095 15.2103 0.0674958C15.1248 0.102603 13.093 0.950224 10.7711 2.89684C8.97407 4.40342 6.70882 6.8398 5.30822 10.3291C2.2464 11.045 0.5 12.3307 0.5 13.8869C0.5 14.7723 1.06283 16.0292 3.74397 16.9897C5.56236 17.6412 7.96175 18 10.5 18C13.0382 18 15.4376 17.6412 17.256 16.9897C19.9372 16.0292 20.5 14.7723 20.5 13.8869C20.5 12.3184 18.7343 11.0292 15.637 10.3164ZM11.8654 4.19239C12.4626 3.68828 13.0417 3.26311 13.5655 2.91216C12.5504 6.44896 13.8139 10.519 14.4432 12.1996C13.4054 12.5768 12.23 12.75 10.9371 12.75C9.08424 12.75 7.41448 12.3714 6.50135 12.1051C7.45394 9.04225 9.25576 6.39471 11.8654 4.19239ZM16.3345 12.3036C18.0701 12.8629 18.7375 13.5137 18.7375 13.8897C18.7375 14.2709 18.0888 14.8852 16.6399 15.4044C15.0136 15.987 12.8332 16.3079 10.5 16.3079C8.1668 16.3079 5.9864 15.987 4.36013 15.4044C2.91111 14.8853 2.26249 14.2682 2.26249 13.8869C2.26249 13.5155 2.93764 12.8272 4.65771 12.268C4.64054 12.3312 4.62249 12.3934 4.60579 12.457C4.50007 12.8616 4.72209 13.3009 5.12532 13.4558C5.23354 13.4973 7.81172 14.4957 10.9366 14.4957C12.8104 14.4957 14.4944 14.1216 15.9405 13.4273C16.352 13.2297 16.5163 12.7093 16.3345 12.3036Z" fill="white"/>
</svg>
