<svg width="23" height="20" viewBox="0 0 23 20" fill="none" xmlns="http://www.w3.org/2000/svg">
<path d="M1.5 7.00822C1.50002 5.89542 1.83759 4.8088 2.46813 3.89188C3.09867 2.97496 3.99252 2.27088 5.03161 1.87262C6.0707 1.47436 7.20616 1.40066 8.28801 1.66126C9.36987 1.92186 10.3472 2.5045 11.091 3.33222C11.1434 3.38823 11.2067 3.43289 11.2771 3.46342C11.3474 3.49395 11.4233 3.5097 11.5 3.5097C11.5767 3.5097 11.6526 3.49395 11.7229 3.46342C11.7933 3.43289 11.8566 3.38823 11.909 3.33222C12.6504 2.49912 13.628 1.91159 14.7116 1.64782C15.7952 1.38405 16.9335 1.45657 17.9749 1.8557C19.0163 2.25484 19.9114 2.96167 20.5411 3.88212C21.1708 4.80257 21.5053 5.89298 21.5 7.00822C21.5 9.29822 20 11.0082 18.5 12.5082L13.008 17.8212C12.8217 18.0352 12.5919 18.2071 12.334 18.3255C12.0762 18.4439 11.796 18.5061 11.5123 18.5079C11.2285 18.5097 10.9476 18.4511 10.6883 18.3359C10.4289 18.2208 10.197 18.0518 10.008 17.8402L4.5 12.5082C3 11.0082 1.5 9.30822 1.5 7.00822Z" stroke="white" stroke-width="2" stroke-linecap="round" stroke-linejoin="round"/>
</svg>
