<svg width="23" height="22" viewBox="0 0 23 22" fill="none" xmlns="http://www.w3.org/2000/svg">
<path d="M2.00295 10.2808L8.43944 7.9379L10.7808 1.50295C10.8345 1.35554 10.9322 1.22821 11.0607 1.13823C11.1893 1.04826 11.3423 1 11.4992 1C11.6561 1 11.8092 1.04826 11.9377 1.13823C12.0662 1.22821 12.164 1.35554 12.2176 1.50295L14.5606 7.93944L20.997 10.2808C21.1445 10.3345 21.2718 10.4322 21.3618 10.5607C21.4517 10.6893 21.5 10.8423 21.5 10.9992C21.5 11.1561 21.4517 11.3092 21.3618 11.4377C21.2718 11.5662 21.1445 11.664 20.997 11.7176L14.559 14.0606L12.2176 20.497C12.164 20.6445 12.0662 20.7718 11.9377 20.8618C11.8092 20.9517 11.6561 21 11.4992 21C11.3423 21 11.1893 20.9517 11.0607 20.8618C10.9322 20.7718 10.8345 20.6445 10.7808 20.497L8.4379 14.059L2.00295 11.7176C1.85554 11.664 1.72821 11.5662 1.63823 11.4377C1.54826 11.3092 1.5 11.1561 1.5 10.9992C1.5 10.8423 1.54826 10.6893 1.63823 10.5607C1.72821 10.4322 1.85554 10.3345 2.00295 10.2808Z" stroke="white" stroke-width="2" stroke-linecap="round" stroke-linejoin="round"/>
</svg>
