<svg width="30" height="20" viewBox="0 0 30 20" fill="none" xmlns="http://www.w3.org/2000/svg">
<path d="M23.0123 7.99979C23.0123 7.73457 22.9069 7.48022 22.7194 7.29268C22.5319 7.10514 22.2775 6.99979 22.0123 6.99979C21.7471 6.99979 21.4927 7.10514 21.3052 7.29268C21.1176 7.48022 21.0123 7.73457 21.0123 7.99979H23.0123ZM9.01229 7.99979C9.01229 7.73457 8.90693 7.48022 8.71939 7.29268C8.53186 7.10514 8.2775 6.99979 8.01229 6.99979C7.74707 6.99979 7.49272 7.10514 7.30518 7.29268C7.11765 7.48022 7.01229 7.73457 7.01229 7.99979H9.01229ZM23.3053 10.7068C23.4939 10.8889 23.7465 10.9897 24.0087 10.9875C24.2709 10.9852 24.5217 10.88 24.7071 10.6946C24.8925 10.5092 24.9977 10.2584 25 9.99619C25.0022 9.73399 24.9014 9.48139 24.7193 9.29279L23.3053 10.7068ZM15.0123 0.999786L15.7193 0.292786C15.5318 0.105315 15.2775 0 15.0123 0C14.7471 0 14.4928 0.105315 14.3053 0.292786L15.0123 0.999786ZM5.30529 9.29279C5.20978 9.38503 5.1336 9.49538 5.08119 9.61738C5.02878 9.73939 5.00119 9.87061 5.00004 10.0034C4.99888 10.1362 5.02419 10.2678 5.07447 10.3907C5.12475 10.5136 5.199 10.6253 5.29289 10.7192C5.38679 10.8131 5.49844 10.8873 5.62133 10.9376C5.74423 10.9879 5.87591 11.0132 6.00869 11.012C6.14147 11.0109 6.27269 10.9833 6.39469 10.9309C6.5167 10.8785 6.62704 10.8023 6.71929 10.7068L5.30529 9.29279ZM10.0123 19.9998H20.0123V17.9998H10.0123V19.9998ZM23.0123 16.9998V7.99979H21.0123V16.9998H23.0123ZM9.01229 16.9998V7.99979H7.01229V16.9998H9.01229ZM24.7193 9.29279L15.7193 0.292786L14.3053 1.70679L23.3053 10.7068L24.7193 9.29279ZM14.3053 0.292786L5.30529 9.29279L6.71929 10.7068L15.7193 1.70679L14.3053 0.292786ZM20.0123 19.9998C20.8079 19.9998 21.571 19.6837 22.1336 19.1211C22.6962 18.5585 23.0123 17.7954 23.0123 16.9998H21.0123C21.0123 17.265 20.9069 17.5194 20.7194 17.7069C20.5319 17.8944 20.2775 17.9998 20.0123 17.9998V19.9998ZM10.0123 17.9998C9.74707 17.9998 9.49272 17.8944 9.30518 17.7069C9.11765 17.5194 9.01229 17.265 9.01229 16.9998H7.01229C7.01229 17.7954 7.32836 18.5585 7.89097 19.1211C8.45358 19.6837 9.21664 19.9998 10.0123 19.9998V17.9998Z" fill="white"/>
</svg>
