<svg width="23" height="22" viewBox="0 0 23 22" fill="none" xmlns="http://www.w3.org/2000/svg">
<path d="M20.1602 16.0001C18.8341 18.2969 16.6499 19.9729 14.0881 20.6593M20.1602 16.0001C21.4863 13.7033 21.8457 10.9737 21.1593 8.41194M20.1602 16.0001L13.4245 12.1111M14.0881 20.6593C11.5263 21.3457 8.79671 20.9863 6.49986 19.6602M14.0881 20.6593L12.0751 13.1465M6.49986 19.6602C4.20307 18.3341 2.52714 16.1499 1.84074 13.5881M6.49986 19.6602L10.3889 12.9245M21.1593 8.41194C20.4729 5.85014 18.7969 3.66592 16.5001 2.33976M21.1593 8.41194L13.6465 10.4249M16.5001 2.33976C14.2033 1.0137 11.4737 0.654346 8.91194 1.34074M16.5001 2.33976L12.6111 9.0755M13.4245 12.1111C13.1298 12.6215 12.6444 12.994 12.0751 13.1465M13.4245 12.1111C13.7192 11.6007 13.799 10.9942 13.6465 10.4249M1.84074 13.5881C1.15435 11.0263 1.5137 8.29671 2.83976 5.99986M1.84074 13.5881L9.3535 11.5751M2.83976 5.99986C4.16592 3.70307 6.35014 2.02714 8.91194 1.34074M2.83976 5.99986L9.5755 9.88886M10.3889 12.9245C10.8993 13.2192 11.5058 13.299 12.0751 13.1465M10.3889 12.9245C9.87846 12.6298 9.50603 12.1444 9.3535 11.5751M8.91194 1.34074L10.9249 8.8535M9.5755 9.88886C9.28082 10.3993 9.20097 11.0058 9.3535 11.5751M9.5755 9.88886C9.8702 9.37846 10.3556 9.00603 10.9249 8.8535M12.6111 9.0755C13.1215 9.3702 13.494 9.85559 13.6465 10.4249M12.6111 9.0755C12.1007 8.78082 11.4942 8.70097 10.9249 8.8535" stroke="white" stroke-width="2" stroke-linecap="round" stroke-linejoin="round"/>
</svg>
