<svg width="17" height="20" viewBox="0 0 17 20" fill="none" xmlns="http://www.w3.org/2000/svg">
<path fill-rule="evenodd" clip-rule="evenodd" d="M9.0343 6.37416C8.85258 5.87528 8.14742 5.87528 7.9657 6.37416L7.14109 8.64109L4.87416 9.4657C4.37528 9.64742 4.37528 10.3526 4.87416 10.5343L7.14109 11.3589L7.9657 13.6258C8.14742 14.1247 8.85258 14.1247 9.0343 13.6258L9.85891 11.3589L12.1258 10.5343C12.6247 10.3526 12.6247 9.64742 12.1258 9.4657L9.85891 8.64109L9.0343 6.37416Z" fill="white"/>
<path d="M0.5 18V2C0.5 1.46957 0.710714 0.960859 1.08579 0.585786C1.46086 0.210714 1.96957 0 2.5 0H14.5C15.0304 0 15.5391 0.210714 15.9142 0.585786C16.2893 0.960859 16.5 1.46957 16.5 2V18C16.5 18.5304 16.2893 19.0391 15.9142 19.4142C15.5391 19.7893 15.0304 20 14.5 20H2.5C1.96957 20 1.46086 19.7893 1.08579 19.4142C0.710714 19.0391 0.5 18.5304 0.5 18ZM14.5 2H2.5V18H14.5V2Z" fill="white"/>
</svg>
