<svg width="22" height="22" viewBox="0 0 22 22" fill="none" xmlns="http://www.w3.org/2000/svg">
<path d="M1.50295 10.2808L7.93944 7.9379L10.2808 1.50295C10.3345 1.35554 10.4322 1.22821 10.5607 1.13823C10.6893 1.04826 10.8423 1 10.9992 1C11.1561 1 11.3092 1.04826 11.4377 1.13823C11.5662 1.22821 11.664 1.35554 11.7176 1.50295L14.0606 7.93944L20.497 10.2808C20.6445 10.3345 20.7718 10.4322 20.8618 10.5607C20.9517 10.6893 21 10.8423 21 10.9992C21 11.1561 20.9517 11.3092 20.8618 11.4377C20.7718 11.5662 20.6445 11.664 20.497 11.7176L14.059 14.0606L11.7176 20.497C11.664 20.6445 11.5662 20.7718 11.4377 20.8618C11.3092 20.9517 11.1561 21 10.9992 21C10.8423 21 10.6893 20.9517 10.5607 20.8618C10.4322 20.7718 10.3345 20.6445 10.2808 20.497L7.9379 14.059L1.50295 11.7176C1.35554 11.664 1.22821 11.5662 1.13823 11.4377C1.04826 11.3092 1 11.1561 1 10.9992C1 10.8423 1.04826 10.6893 1.13823 10.5607C1.22821 10.4322 1.35554 10.3345 1.50295 10.2808Z" stroke="#9F95D8" stroke-width="2" stroke-linecap="round" stroke-linejoin="round"/>
</svg>
