<svg width="20" height="20" viewBox="0 0 20 20" fill="none" xmlns="http://www.w3.org/2000/svg">
<path d="M14.5127 18.5V19.5H5.5127V18.5H14.5127ZM3.60059 17.5C3.67447 17.7085 3.79181 17.9011 3.95117 18.0605C4.11074 18.2201 4.30395 18.3372 4.5127 18.4111V19.4482C4.0359 19.3509 3.59338 19.1168 3.24414 18.7676C2.89513 18.4185 2.66082 17.9765 2.56348 17.5H3.60059ZM17.4609 17.5C17.3636 17.9765 17.1293 18.4185 16.7803 18.7676C16.4312 19.1166 15.9892 19.3509 15.5127 19.4482V18.4111C15.7212 18.3372 15.9139 18.2199 16.0732 18.0605C16.2327 17.901 16.3509 17.7086 16.4248 17.5H17.4609ZM17.5127 10.6211V16.5H16.5127V9.62109L17.5127 10.6211ZM3.5127 16.5H2.5127V10.6211L3.5127 9.62109V16.5ZM0.74707 10.4414C0.710772 10.42 0.67641 10.3952 0.646484 10.3652C0.616835 10.3356 0.592547 10.3016 0.571289 10.2656L0.74707 10.4414ZM1.5127 9.79297L1.0127 9.29297L1.5127 8.79297V9.79297ZM19.0127 9.29297L18.5127 9.79297V8.79297L19.0127 9.29297ZM3.21973 8.5L2.5127 9.20703V8.5H3.21973ZM17.5127 8.5V9.20703L16.8057 8.5H17.5127ZM8.59863 1.70703L9.30566 2.41406L4.36426 7.35449C4.29158 7.20222 4.19479 7.06107 4.07324 6.93945C3.95144 6.81765 3.8098 6.72022 3.65723 6.64746L8.59863 1.70703ZM16.3672 6.64746C16.2147 6.72021 16.0729 6.81769 15.9512 6.93945C15.8296 7.06107 15.7328 7.20223 15.6602 7.35449L10.7197 2.41406L11.4268 1.70703L16.3672 6.64746Z" stroke="url(#paint0_linear_111_60)"/>
<defs>
<linearGradient id="paint0_linear_111_60" x1="0" y1="9.99989" x2="20" y2="9.99989" gradientUnits="userSpaceOnUse">
<stop stop-color="#959FD8"/>
<stop offset="1" stop-color="#D5A2F2"/>
</linearGradient>
</defs>
</svg>
