<svg width="22" height="22" viewBox="0 0 22 22" fill="none" xmlns="http://www.w3.org/2000/svg">
<path d="M19.6602 16.0001C18.3341 18.2969 16.1499 19.9729 13.5881 20.6593M19.6602 16.0001C20.9863 13.7033 21.3457 10.9737 20.6593 8.41194M19.6602 16.0001L12.9245 12.1111M13.5881 20.6593C11.0263 21.3457 8.29671 20.9863 5.99986 19.6602M13.5881 20.6593L11.5751 13.1465M5.99986 19.6602C3.70307 18.3341 2.02714 16.1499 1.34074 13.5881M5.99986 19.6602L9.88886 12.9245M20.6593 8.41194C19.9729 5.85014 18.2969 3.66592 16.0001 2.33976M20.6593 8.41194L13.1465 10.4249M16.0001 2.33976C13.7033 1.0137 10.9737 0.654346 8.41194 1.34074M16.0001 2.33976L12.1111 9.0755M12.9245 12.1111C12.6298 12.6215 12.1444 12.994 11.5751 13.1465M12.9245 12.1111C13.2192 11.6007 13.299 10.9942 13.1465 10.4249M1.34074 13.5881C0.654346 11.0263 1.0137 8.29671 2.33976 5.99986M1.34074 13.5881L8.8535 11.5751M2.33976 5.99986C3.66592 3.70307 5.85014 2.02714 8.41194 1.34074M2.33976 5.99986L9.0755 9.88886M9.88886 12.9245C10.3993 13.2192 11.0058 13.299 11.5751 13.1465M9.88886 12.9245C9.37846 12.6298 9.00603 12.1444 8.8535 11.5751M8.41194 1.34074L10.4249 8.8535M9.0755 9.88886C8.78082 10.3993 8.70097 11.0058 8.8535 11.5751M9.0755 9.88886C9.3702 9.37846 9.85559 9.00603 10.4249 8.8535M12.1111 9.0755C12.6215 9.3702 12.994 9.85559 13.1465 10.4249M12.1111 9.0755C11.6007 8.78082 10.9942 8.70097 10.4249 8.8535" stroke="url(#paint0_linear_111_797)" stroke-width="2" stroke-linecap="round" stroke-linejoin="round"/>
<defs>
<linearGradient id="paint0_linear_111_797" x1="1" y1="11" x2="21" y2="11" gradientUnits="userSpaceOnUse">
<stop stop-color="#959FD8"/>
<stop offset="1" stop-color="#D5A2F2"/>
</linearGradient>
</defs>
</svg>
