<svg width="16" height="20" viewBox="0 0 16 20" fill="none" xmlns="http://www.w3.org/2000/svg">
<path d="M8.04102 6.51074L8.06445 6.54492L8.88867 8.8125L8.96875 9.03125L9.1875 9.11133L11.4551 9.93555C11.4778 9.9439 11.4855 9.95331 11.4893 9.95898C11.4948 9.96745 11.5 9.98175 11.5 10C11.5 10.0183 11.4948 10.0325 11.4893 10.041L11.4551 10.0645L9.1875 10.8887L8.96875 10.9688L8.88867 11.1875L8.06445 13.4551C8.0561 13.4778 8.04669 13.4855 8.04102 13.4893C8.03255 13.4948 8.01825 13.5 8 13.5C7.98175 13.5 7.96745 13.4948 7.95898 13.4893L7.93555 13.4551L7.11133 11.1875L7.03125 10.9688L6.8125 10.8887L4.54492 10.0645C4.52217 10.0561 4.5145 10.0467 4.51074 10.041C4.50515 10.0325 4.5 10.0183 4.5 10C4.5 9.98175 4.50515 9.96745 4.51074 9.95898L4.54492 9.93555L6.8125 9.11133L7.03125 9.03125L7.11133 8.8125L7.93555 6.54492C7.9439 6.52217 7.95331 6.5145 7.95898 6.51074C7.96745 6.50515 7.98175 6.5 8 6.5C8.01825 6.5 8.03255 6.50515 8.04102 6.51074Z" fill="url(#paint0_linear_111_974)" stroke="url(#paint1_linear_111_974)"/>
<path d="M15.5 2V18C15.5 18.3978 15.3419 18.7792 15.0605 19.0605C14.7792 19.3419 14.3978 19.5 14 19.5H2C1.60218 19.5 1.22076 19.3419 0.939453 19.0605C0.658148 18.7792 0.5 18.3978 0.5 18V2C0.5 1.60218 0.658149 1.22076 0.939453 0.939453C1.22076 0.658149 1.60218 0.5 2 0.5H14L14.1484 0.507812C14.4917 0.541951 14.8145 0.693366 15.0605 0.939453C15.3419 1.22076 15.5 1.60218 15.5 2ZM1.5 1.5V18.5H14.5V1.5H1.5Z" fill="white" stroke="url(#paint2_linear_111_974)"/>
<defs>
<linearGradient id="paint0_linear_111_974" x1="4" y1="10" x2="12" y2="10" gradientUnits="userSpaceOnUse">
<stop stop-color="#959FD8"/>
<stop offset="1" stop-color="#D5A2F2"/>
</linearGradient>
<linearGradient id="paint1_linear_111_974" x1="4" y1="10" x2="12" y2="10" gradientUnits="userSpaceOnUse">
<stop stop-color="#959FD8"/>
<stop offset="1" stop-color="#D5A2F2"/>
</linearGradient>
<linearGradient id="paint2_linear_111_974" x1="8" y1="0" x2="8" y2="20" gradientUnits="userSpaceOnUse">
<stop stop-color="#959FD8"/>
<stop offset="1" stop-color="#D5A2F2"/>
</linearGradient>
</defs>
</svg>
